<svg id="setting" xmlns="http://www.w3.org/2000/svg" width="39.662" height="39.662" viewBox="0 0 39.662 39.662">
  <path id="Path_412" data-name="Path 412" d="M0,0H39.662V39.662H0Z" fill="none"/>
  <path id="Path_413" data-name="Path 413" d="M15.105,5.176a2.848,2.848,0,0,1,5.536,0,2.849,2.849,0,0,0,4.252,1.762,2.85,2.85,0,0,1,3.917,3.917,2.849,2.849,0,0,0,1.76,4.25,2.848,2.848,0,0,1,0,5.536,2.849,2.849,0,0,0-1.762,4.252,2.85,2.85,0,0,1-3.917,3.917,2.849,2.849,0,0,0-4.25,1.76,2.849,2.849,0,0,1-5.536,0,2.849,2.849,0,0,0-4.252-1.762,2.85,2.85,0,0,1-3.917-3.917,2.849,2.849,0,0,0-1.76-4.25,2.849,2.849,0,0,1,0-5.536,2.849,2.849,0,0,0,1.762-4.252,2.85,2.85,0,0,1,3.917-3.917,2.847,2.847,0,0,0,4.25-1.76Z" transform="translate(1.958 1.958)" fill="none" stroke="#f40009" stroke-linecap="round" stroke-linejoin="round" stroke-width="3"/>
  <circle id="Ellipse_123" data-name="Ellipse 123" cx="5.378" cy="5.378" r="5.378" transform="translate(14.453 14.453)" fill="none" stroke="#f40009" stroke-linecap="round" stroke-linejoin="round" stroke-width="3"/>
</svg>
